dataset
version=1
nRows=16
nColumns=39
inDegrees=no
endheader
time	sternoclavicular_r2	sternoclavicular_r3	unrotscap_r3	unrotscap_r2	acromioclavicular_r2	acromioclavicular_r3	acromioclavicular_r1	unrothum_r1	unrothum_r3	unrothum_r2	elv_angle	shoulder_elv	shoulder1_r2	shoulder_rot	elbow_flexion	pro_sup	deviation	flexion	cmc_abduction	cmc_flexion	mp_flexion	ip_flexion	mcp2_flexion	mcp2_abduction	pm2_flexion	md2_flexion	mcp3_flexion	mcp3_abduction	pm3_flexion	md3_flexion	mcp4_flexion	mcp4_abduction	pm4_flexion	md4_flexion	mcp5_flexion	mcp5_abduction	pm5_flexion	md5_flexion
0.000000	-0.014741	-0.268201	0.114770	0.077532	0.060578	0.081688	-0.088506	-0.098922	0.053622	0.120862	0.098807	0.027437	0.146525	0.146525	1.361070	0.890083	0.000000	0.000000	0.000000	0.000000	0.000000	0.000000	0.000000	0.000000	0.000000	0.000000	0.000000	0.000000	0.000000	0.000000	0.000000	0.000000	0.000000	0.000000	0.000000	0.000000	0.000000	0.000000
0.005000	-0.014734	-0.268198	0.114864	0.077465	0.060499	0.081743	-0.088578	-0.099073	0.053696	0.120793	0.098736	0.027437	0.146525	0.146525	1.361291	0.892790	0.000000	0.000000	0.000000	0.000000	0.000000	0.000000	0.000000	0.000000	0.000000	0.000000	0.000000	0.000000	0.000000	0.000000	0.000000	0.000000	0.000000	0.000000	0.000000	0.000000	0.000000	0.000000
0.010000	-0.014727	-0.268191	0.114941	0.077400	0.060424	0.081788	-0.088637	-0.099273	0.053818	0.120736	0.098680	0.027437	0.146525	0.146525	1.361575	0.895473	0.000000	0.000000	0.000000	0.000000	0.000000	0.000000	0.000000	0.000000	0.000000	0.000000	0.000000	0.000000	0.000000	0.000000	0.000000	0.000000	0.000000	0.000000	0.000000	0.000000	0.000000	0.000000
0.015000	-0.014720	-0.268183	0.115009	0.077341	0.060355	0.081828	-0.088688	-0.099508	0.053976	0.120690	0.098638	0.027437	0.146525	0.146525	1.361924	0.898130	0.000000	0.000000	0.000000	0.000000	0.000000	0.000000	0.000000	0.000000	0.000000	0.000000	0.000000	0.000000	0.000000	0.000000	0.000000	0.000000	0.000000	0.000000	0.000000	0.000000	0.000000	0.000000
0.020000	-0.014714	-0.268175	0.115074	0.077289	0.060295	0.081867	-0.088736	-0.099770	0.054163	0.120655	0.098611	0.027437	0.146525	0.146525	1.362341	0.900763	0.000000	0.000000	0.000000	0.000000	0.000000	0.000000	0.000000	0.000000	0.000000	0.000000	0.000000	0.000000	0.000000	0.000000	0.000000	0.000000	0.000000	0.000000	0.000000	0.000000	0.000000	0.000000
0.025000	-0.014709	-0.268166	0.115137	0.077248	0.060245	0.081906	-0.088783	-0.100054	0.054378	0.120632	0.098599	0.027437	0.146525	0.146525	1.362828	0.903372	0.000000	0.000000	0.000000	0.000000	0.000000	0.000000	0.000000	0.000000	0.000000	0.000000	0.000000	0.000000	0.000000	0.000000	0.000000	0.000000	0.000000	0.000000	0.000000	0.000000	0.000000	0.000000
0.030000	-0.014705	-0.268158	0.115200	0.077217	0.060205	0.081947	-0.088829	-0.100358	0.054618	0.120622	0.098602	0.027437	0.146525	0.146525	1.363389	0.905957	0.000000	0.000000	0.000000	0.000000	0.000000	0.000000	0.000000	0.000000	0.000000	0.000000	0.000000	0.000000	0.000000	0.000000	0.000000	0.000000	0.000000	0.000000	0.000000	0.000000	0.000000	0.000000
0.035000	-0.014703	-0.268149	0.115263	0.077197	0.060177	0.081989	-0.088876	-0.100682	0.054883	0.120625	0.098622	0.027437	0.146525	0.146525	1.364025	0.908518	0.000000	0.000000	0.000000	0.000000	0.000000	0.000000	0.000000	0.000000	0.000000	0.000000	0.000000	0.000000	0.000000	0.000000	0.000000	0.000000	0.000000	0.000000	0.000000	0.000000	0.000000	0.000000
0.040000	-0.014702	-0.268141	0.115327	0.077190	0.060161	0.082033	-0.088923	-0.101023	0.055173	0.120641	0.098658	0.027437	0.146525	0.146525	1.364741	0.911056	0.000000	0.000000	0.000000	0.000000	0.000000	0.000000	0.000000	0.000000	0.000000	0.000000	0.000000	0.000000	0.000000	0.000000	0.000000	0.000000	0.000000	0.000000	0.000000	0.000000	0.000000	0.000000
0.045000	-0.014703	-0.268134	0.115392	0.077196	0.060158	0.082078	-0.088970	-0.101383	0.055487	0.120672	0.098712	0.027437	0.146525	0.146525	1.365539	0.913572	0.000000	0.000000	0.000000	0.000000	0.000000	0.000000	0.000000	0.000000	0.000000	0.000000	0.000000	0.000000	0.000000	0.000000	0.000000	0.000000	0.000000	0.000000	0.000000	0.000000	0.000000	0.000000
0.050000	-0.014705	-0.268127	0.115458	0.077216	0.060169	0.082126	-0.089017	-0.101760	0.055826	0.120717	0.098784	0.027437	0.146525	0.146525	1.366420	0.916065	0.000000	0.000000	0.000000	0.000000	0.000000	0.000000	0.000000	0.000000	0.000000	0.000000	0.000000	0.000000	0.000000	0.000000	0.000000	0.000000	0.000000	0.000000	0.000000	0.000000	0.000000	0.000000
0.055000	-0.014709	-0.268120	0.115524	0.077251	0.060195	0.082176	-0.089065	-0.102153	0.056189	0.120778	0.098875	0.027437	0.146525	0.146525	1.367389	0.918537	0.000000	0.000000	0.000000	0.000000	0.000000	0.000000	0.000000	0.000000	0.000000	0.000000	0.000000	0.000000	0.000000	0.000000	0.000000	0.000000	0.000000	0.000000	0.000000	0.000000	0.000000	0.000000
0.060000	-0.014715	-0.268114	0.115591	0.077300	0.060235	0.082227	-0.089113	-0.102563	0.056578	0.120856	0.098985	0.027437	0.146525	0.146525	1.368447	0.920987	0.000000	0.000000	0.000000	0.000000	0.000000	0.000000	0.000000	0.000000	0.000000	0.000000	0.000000	0.000000	0.000000	0.000000	0.000000	0.000000	0.000000	0.000000	0.000000	0.000000	0.000000	0.000000
0.065000	-0.014723	-0.268108	0.115658	0.077366	0.060291	0.082281	-0.089160	-0.102990	0.056991	0.120950	0.099116	0.027437	0.146525	0.146525	1.369596	0.923417	0.000000	0.000000	0.000000	0.000000	0.000000	0.000000	0.000000	0.000000	0.000000	0.000000	0.000000	0.000000	0.000000	0.000000	0.000000	0.000000	0.000000	0.000000	0.000000	0.000000	0.000000	0.000000
0.070000	-0.014733	-0.268102	0.115725	0.077448	0.060364	0.082336	-0.089208	-0.103431	0.057430	0.121061	0.099267	0.027437	0.146525	0.146525	1.370839	0.925826	0.000000	0.000000	0.000000	0.000000	0.000000	0.000000	0.000000	0.000000	0.000000	0.000000	0.000000	0.000000	0.000000	0.000000	0.000000	0.000000	0.000000	0.000000	0.000000	0.000000	0.000000	0.000000
0.075000	-0.014744	-0.268097	0.115791	0.077547	0.060454	0.082393	-0.089254	-0.103888	0.057893	0.121191	0.099440	0.027437	0.146525	0.146525	1.372177	0.928216	0.000000	0.000000	0.000000	0.000000	0.000000	0.000000	0.000000	0.000000	0.000000	0.000000	0.000000	0.000000	0.000000	0.000000	0.000000	0.000000	0.000000	0.000000	0.000000	0.000000	0.000000	0.000000
